<svg viewBox="49.1214 134.501 294.7573 213.9161" width="5000" height="3628.6819698782692" xmlns="http://www.w3.org/2000/svg" xmlns:xlink="http://www.w3.org/1999/xlink" preserveAspectRatio="none"><defs></defs><style>.a6izo4zJpcolor {fill:#E9E4E4;fill-opacity:1;}.aD6z1nYkhcolor {fill:#F9F6F6;fill-opacity:1;}.aLgOaV3zRcolors-0 {fill:#F7F4F4;fill-opacity:1;}.av18Pkc8W9color {fill:#F7F3F3;fill-opacity:1;}.av18Pkc8W9strokeColor-str {stroke:#0E0E0E;stroke-opacity:1;}.icon2 {fill:#F36958;fill-opacity:1;}.icon3 {fill:#8C94CC;fill-opacity:1;}.icon3-str {stroke:#8C94CC;stroke-opacity:1;}</style><defs>
      <filter
        x="49.1214"
        y="134.501"
        width="294.7573"
        height="213.9161"
        id="global"
        filterUnits="userSpaceOnUse"
        primitiveUnits="userSpaceOnUse"
        color-interpolation-filters="sRGB">
        <feColorMatrix
                        type="matrix"
                        values="0.3333 0.3333 0.3333 0 0 0.3333 0.3333 0.3333 0 0 0.3333 0.3333 0.3333 0 0 0 0 0 1 0"/><feColorMatrix
                        type="matrix"
                        values="-1 0 0 0 1 0 -1 0 0 1 0 0 -1 0 1 0 0 0 1 0"/>
      </filter></defs><g filter="url(#global)"><g opacity="1" transform="rotate(0 49.1214 332.3485)">
<svg width="294.7573" height="16.0686" x="49.1214" y="332.3485" version="1.1" preserveAspectRatio="none" viewBox="0.36 -31.24 744.76 40.599999999999994">
  <g transform="matrix(1 0 0 1 0 0)" class="a6izo4zJpcolor"><path id="id-6izo4zJp29" d="M35.48-31.24Q36.28-31.24 36.68-30.76Q37.08-30.28 37.08-29.48L37.08-29.48Q37.08-28.88 36.92-28.36L36.92-28.36L28.88-1.68Q28.60-0.92 28.06-0.46Q27.52 0 26.80 0L26.80 0Q26.08 0 25.52-0.46Q24.96-0.92 24.72-1.64L24.72-1.64L18.76-24.68L12.72-1.68Q12.44-0.92 11.90-0.46Q11.36 0 10.64 0L10.64 0Q9.92 0 9.36-0.44Q8.80-0.88 8.56-1.64L8.56-1.64L0.52-28.36Q0.36-28.88 0.36-29.44L0.36-29.44Q0.36-30.28 0.82-30.76Q1.28-31.24 2.08-31.24L2.08-31.24Q2.80-31.24 3.34-30.84Q3.88-30.44 4.12-29.68L4.12-29.68L10.68-6.88L16.72-29.44Q16.88-30.04 17.44-30.44Q18-30.84 18.72-30.84L18.72-30.84Q19.40-30.84 19.96-30.48Q20.52-30.12 20.68-29.48L20.68-29.48L26.80-6.72L33.44-29.88Q33.64-30.60 34.14-30.92Q34.64-31.24 35.48-31.24L35.48-31.24Z M45.52-19.84Q45.52-20.76 46.10-21.32Q46.68-21.88 47.56-21.88L47.56-21.88Q48.48-21.88 49.04-21.32Q49.60-20.76 49.60-19.84L49.60-19.84L49.60-2.04Q49.60-1.16 49.04-0.58Q48.48 0 47.56 0L47.56 0Q46.68 0 46.10-0.58Q45.52-1.16 45.52-2.04L45.52-2.04L45.52-19.84ZM47.56-30.72Q48.64-30.72 49.42-29.94Q50.20-29.16 50.20-28.08L50.20-28.08Q50.20-27 49.42-26.22Q48.64-25.44 47.56-25.44L47.56-25.44Q46.48-25.44 45.70-26.22Q44.92-27 44.92-28.08L44.92-28.08Q44.92-29.16 45.70-29.94Q46.48-30.72 47.56-30.72L47.56-30.72Z M71.92-22.12Q74.04-22.12 75.24-21.48Q76.44-20.84 76.44-19.88L76.44-19.88Q76.44-19.60 76.40-19.48L76.40-19.48Q76.04-18.20 74.80-18.20L74.80-18.20Q74.60-18.20 74.20-18.28L74.20-18.28Q72.60-18.56 71.60-18.56L71.60-18.56Q68.72-18.56 66.96-17.24Q65.20-15.92 65.20-13.68L65.20-13.68L65.20-2Q65.20-1.04 64.70-0.52Q64.20 0 63.20 0L63.20 0Q62.24 0 61.72-0.50Q61.20-1 61.20-2L61.20-2L61.20-19.88Q61.20-20.84 61.72-21.36Q62.24-21.88 63.20-21.88L63.20-21.88Q65.20-21.88 65.20-19.88L65.20-19.88L65.20-19.12Q66.40-20.52 68.16-21.32Q69.92-22.12 71.92-22.12L71.92-22.12Z M111.36-22.04Q114.44-22.04 116.98-20.58Q119.52-19.12 120.96-16.58Q122.40-14.04 122.40-10.92L122.40-10.92Q122.40-7.80 121.06-5.26Q119.72-2.72 117.38-1.28Q115.04 0.16 112.16 0.16L112.16 0.16Q109.84 0.16 107.84-0.80Q105.84-1.76 104.44-3.48L104.44-3.48L104.44 7.32Q104.44 8.24 103.88 8.80Q103.32 9.36 102.40 9.36L102.40 9.36Q101.52 9.36 100.94 8.80Q100.36 8.24 100.36 7.32L100.36 7.32L100.36-10.92Q100.36-14.04 101.82-16.58Q103.28-19.12 105.78-20.58Q108.28-22.04 111.36-22.04L111.36-22.04ZM111.36-3.44Q113.36-3.44 114.98-4.42Q116.60-5.40 117.54-7.10Q118.48-8.80 118.48-10.92L118.48-10.92Q118.48-13.04 117.54-14.76Q116.60-16.48 114.98-17.46Q113.36-18.44 111.36-18.44L111.36-18.44Q109.36-18.44 107.74-17.46Q106.12-16.48 105.20-14.76Q104.28-13.04 104.28-10.92L104.28-10.92Q104.28-8.80 105.20-7.10Q106.12-5.40 107.74-4.42Q109.36-3.44 111.36-3.44L111.36-3.44Z M150.52-21.92Q151.44-21.92 152-21.36Q152.56-20.80 152.56-19.88L152.56-19.88L152.56-2.04Q152.56-1.16 152-0.58Q151.44 0 150.52 0L150.52 0Q149.64 0 149.06-0.58Q148.48-1.16 148.48-2.04L148.48-2.04L148.48-2.48Q147.20-1.20 145.44-0.50Q143.68 0.20 141.68 0.20L141.68 0.20Q138.92 0.20 136.72-1Q134.52-2.20 133.28-4.50Q132.04-6.80 132.04-10.04L132.04-10.04L132.04-19.88Q132.04-20.76 132.62-21.34Q133.20-21.92 134.08-21.92L134.08-21.92Q134.96-21.92 135.54-21.34Q136.12-20.76 136.12-19.88L136.12-19.88L136.12-10.04Q136.12-6.80 137.86-5.14Q139.60-3.48 142.48-3.48L142.48-3.48Q144.16-3.48 145.54-4.16Q146.92-4.84 147.70-6Q148.48-7.16 148.48-8.60L148.48-8.60L148.48-19.88Q148.48-20.80 149.06-21.36Q149.64-21.92 150.52-21.92L150.52-21.92Z M173.08-4Q173.80-4 174.30-3.44Q174.80-2.88 174.80-2L174.80-2Q174.80-1.12 174.14-0.56Q173.48 0 172.44 0L172.44 0L171.72 0Q169.76 0 168.14-1.02Q166.52-2.04 165.60-3.80Q164.68-5.56 164.68-7.76L164.68-7.76L164.68-17.64L162.84-17.64Q162-17.64 161.48-18.12Q160.96-18.60 160.96-19.32L160.96-19.32Q160.96-20.12 161.48-20.60Q162-21.08 162.84-21.08L162.84-21.08L164.68-21.08L164.68-26.84Q164.68-27.72 165.24-28.28Q165.80-28.84 166.68-28.84L166.68-28.84Q167.56-28.84 168.12-28.28Q168.68-27.72 168.68-26.84L168.68-26.84L168.68-21.08L172.08-21.08Q172.92-21.08 173.44-20.60Q173.96-20.12 173.96-19.32L173.96-19.32Q173.96-18.60 173.44-18.12Q172.92-17.64 172.08-17.64L172.08-17.64L168.68-17.64L168.68-7.76Q168.68-6.16 169.56-5.08Q170.44-4 171.72-4L171.72-4L173.08-4Z M198.32-3.76Q200.20-3.76 200.20-1.88L200.20-1.88Q200.20 0 198.32 0L198.32 0L184.68 0Q182.80 0 182.80-1.88L182.80-1.88Q182.80-2.68 183.16-3.16L183.16-3.16L194.48-18.12L184.28-18.12Q182.40-18.12 182.40-20L182.40-20Q182.40-21.88 184.28-21.88L184.28-21.88L197.92-21.88Q199.80-21.88 199.80-20L199.80-20Q199.80-19.20 199.44-18.72L199.44-18.72L188.16-3.76L198.32-3.76Z M228.24-11.28Q228.24-10.52 227.72-10.02Q227.20-9.52 226.40-9.52L226.40-9.52L211.20-9.52Q211.64-6.72 213.74-5Q215.84-3.28 218.88-3.28L218.88-3.28Q220.08-3.28 221.38-3.72Q222.68-4.16 223.52-4.80L223.52-4.80Q224.08-5.24 224.84-5.24L224.84-5.24Q225.60-5.24 226.04-4.84L226.04-4.84Q226.76-4.24 226.76-3.48L226.76-3.48Q226.76-2.76 226.12-2.28L226.12-2.28Q224.76-1.20 222.74-0.52Q220.72 0.16 218.88 0.16L218.88 0.16Q215.60 0.16 213.00-1.26Q210.40-2.68 208.94-5.20Q207.48-7.72 207.48-10.92L207.48-10.92Q207.48-14.12 208.86-16.66Q210.24-19.20 212.70-20.62Q215.16-22.04 218.28-22.04L218.28-22.04Q221.36-22.04 223.60-20.68Q225.84-19.32 227.04-16.88Q228.24-14.44 228.24-11.28L228.24-11.28ZM218.28-18.60Q215.36-18.60 213.54-17Q211.72-15.40 211.24-12.72L211.24-12.72L224.56-12.72Q224.20-15.40 222.56-17Q220.92-18.60 218.28-18.60L218.28-18.60Z M248.32-22.08Q251.08-22.08 253.28-20.88Q255.48-19.68 256.72-17.38Q257.96-15.08 257.96-11.84L257.96-11.84L257.96-2Q257.96-1.12 257.38-0.54Q256.80 0.04 255.92 0.04L255.92 0.04Q255.04 0.04 254.46-0.54Q253.88-1.12 253.88-2L253.88-2L253.88-11.84Q253.88-15.08 252.14-16.74Q250.40-18.40 247.52-18.40L247.52-18.40Q245.84-18.40 244.46-17.72Q243.08-17.04 242.30-15.88Q241.52-14.72 241.52-13.28L241.52-13.28L241.52-2Q241.52-1.12 240.96-0.54Q240.40 0.04 239.48 0.04L239.48 0.04Q238.60 0.04 238.02-0.54Q237.44-1.12 237.44-2L237.44-2L237.44-19.84Q237.44-20.76 238.02-21.32Q238.60-21.88 239.48-21.88L239.48-21.88Q240.40-21.88 240.96-21.32Q241.52-20.76 241.52-19.84L241.52-19.84L241.52-19.40Q242.80-20.68 244.56-21.38Q246.32-22.08 248.32-22.08L248.32-22.08Z M295.32-22.08Q298.08-22.08 300.28-20.88Q302.48-19.68 303.72-17.38Q304.96-15.08 304.96-11.84L304.96-11.84L304.96-2Q304.96-1.12 304.38-0.54Q303.80 0.04 302.92 0.04L302.92 0.04Q302.04 0.04 301.46-0.54Q300.88-1.12 300.88-2L300.88-2L300.88-11.84Q300.88-15.08 299.14-16.74Q297.40-18.40 294.52-18.40L294.52-18.40Q292.84-18.40 291.46-17.72Q290.08-17.04 289.30-15.88Q288.52-14.72 288.52-13.28L288.52-13.28L288.52-2Q288.52-1.12 287.96-0.54Q287.40 0.04 286.48 0.04L286.48 0.04Q285.60 0.04 285.02-0.54Q284.44-1.12 284.44-2L284.44-2L284.44-19.84Q284.44-20.76 285.02-21.32Q285.60-21.88 286.48-21.88L286.48-21.88Q287.40-21.88 287.96-21.32Q288.52-20.76 288.52-19.84L288.52-19.84L288.52-19.40Q289.80-20.68 291.56-21.38Q293.32-22.08 295.32-22.08L295.32-22.08Z M316.12-19.84Q316.12-20.76 316.70-21.32Q317.28-21.88 318.16-21.88L318.16-21.88Q319.08-21.88 319.64-21.32Q320.20-20.76 320.20-19.84L320.20-19.84L320.20-2.04Q320.20-1.16 319.64-0.58Q319.08 0 318.16 0L318.16 0Q317.28 0 316.70-0.58Q316.12-1.16 316.12-2.04L316.12-2.04L316.12-19.84ZM318.16-30.72Q319.24-30.72 320.02-29.94Q320.80-29.16 320.80-28.08L320.80-28.08Q320.80-27 320.02-26.22Q319.24-25.44 318.16-25.44L318.16-25.44Q317.08-25.44 316.30-26.22Q315.52-27 315.52-28.08L315.52-28.08Q315.52-29.16 316.30-29.94Q317.08-30.72 318.16-30.72L318.16-30.72Z M341.52-22.04Q346.24-22.04 349.36-18.44L349.36-18.44Q349.76-18 349.76-17.40L349.76-17.40Q349.76-16.52 348.88-15.92L348.88-15.92Q348.48-15.64 347.96-15.64L347.96-15.64Q347.04-15.64 346.40-16.36L346.40-16.36Q345.40-17.44 344.22-17.94Q343.04-18.44 341.52-18.44L341.52-18.44Q338.44-18.44 336.52-16.38Q334.60-14.32 334.60-10.92L334.60-10.92Q334.60-8.76 335.50-7.06Q336.40-5.36 338.02-4.40Q339.64-3.44 341.72-3.44L341.72-3.44Q344.44-3.44 346.12-4.84L346.12-4.84Q346.88-5.40 347.60-5.40L347.60-5.40Q348.16-5.40 348.64-5.04L348.64-5.04Q349.40-4.40 349.40-3.60L349.40-3.60Q349.40-3 348.92-2.52L348.92-2.52Q346.04 0.16 341.72 0.16L341.72 0.16Q338.56 0.16 336.04-1.28Q333.52-2.72 332.10-5.26Q330.68-7.80 330.68-10.92L330.68-10.92Q330.68-14.12 332.06-16.66Q333.44-19.20 335.92-20.62Q338.40-22.04 341.52-22.04L341.52-22.04Z M370.72-22.08Q373.48-22.08 375.68-20.88Q377.88-19.68 379.12-17.38Q380.36-15.08 380.36-11.84L380.36-11.84L380.36-2Q380.36-1.12 379.78-0.54Q379.20 0.04 378.32 0.04L378.32 0.04Q377.44 0.04 376.86-0.54Q376.28-1.12 376.28-2L376.28-2L376.28-11.84Q376.28-15.08 374.54-16.74Q372.80-18.40 369.92-18.40L369.92-18.40Q368.24-18.40 366.86-17.72Q365.48-17.04 364.70-15.88Q363.92-14.72 363.92-13.28L363.92-13.28L363.92-2Q363.92-1.12 363.36-0.54Q362.80 0.04 361.88 0.04L361.88 0.04Q361 0.04 360.42-0.54Q359.84-1.12 359.84-2L359.84-2L359.84-29.20Q359.84-30.12 360.42-30.68Q361-31.24 361.88-31.24L361.88-31.24Q362.80-31.24 363.36-30.68Q363.92-30.12 363.92-29.20L363.92-29.20L363.92-19.40Q365.20-20.68 366.96-21.38Q368.72-22.08 370.72-22.08L370.72-22.08Z M400.48-4Q401.20-4 401.70-3.44Q402.20-2.88 402.20-2L402.20-2Q402.20-1.12 401.54-0.56Q400.88 0 399.84 0L399.84 0L399.12 0Q397.16 0 395.54-1.02Q393.92-2.04 393-3.80Q392.08-5.56 392.08-7.76L392.08-7.76L392.08-17.64L390.24-17.64Q389.40-17.64 388.88-18.12Q388.36-18.60 388.36-19.32L388.36-19.32Q388.36-20.12 388.88-20.60Q389.40-21.08 390.24-21.08L390.24-21.08L392.08-21.08L392.08-26.84Q392.08-27.72 392.64-28.28Q393.20-28.84 394.08-28.84L394.08-28.84Q394.96-28.84 395.52-28.28Q396.08-27.72 396.08-26.84L396.08-26.84L396.08-21.08L399.48-21.08Q400.32-21.08 400.84-20.60Q401.36-20.12 401.36-19.32L401.36-19.32Q401.36-18.60 400.84-18.12Q400.32-17.64 399.48-17.64L399.48-17.64L396.08-17.64L396.08-7.76Q396.08-6.16 396.96-5.08Q397.84-4 399.12-4L399.12-4L400.48-4Z M437.80-22.08Q440.56-22.08 442.76-20.88Q444.96-19.68 446.20-17.38Q447.44-15.08 447.44-11.84L447.44-11.84L447.44-2Q447.44-1.12 446.86-0.54Q446.28 0.04 445.40 0.04L445.40 0.04Q444.52 0.04 443.94-0.54Q443.36-1.12 443.36-2L443.36-2L443.36-11.84Q443.36-15.08 441.62-16.74Q439.88-18.40 437.00-18.40L437.00-18.40Q435.32-18.40 433.94-17.72Q432.56-17.04 431.78-15.88Q431.00-14.72 431.00-13.28L431.00-13.28L431.00-2Q431.00-1.12 430.44-0.54Q429.88 0.04 428.96 0.04L428.96 0.04Q428.08 0.04 427.50-0.54Q426.92-1.12 426.92-2L426.92-2L426.92-19.84Q426.92-20.76 427.50-21.32Q428.08-21.88 428.96-21.88L428.96-21.88Q429.88-21.88 430.44-21.32Q431.00-20.76 431.00-19.84L431.00-19.84L431.00-19.40Q432.28-20.68 434.04-21.38Q435.80-22.08 437.80-22.08L437.80-22.08Z M476.24-21.92Q477.16-21.92 477.72-21.36Q478.28-20.80 478.28-19.88L478.28-19.88L478.28-2.04Q478.28-1.16 477.72-0.58Q477.16 0 476.24 0L476.24 0Q475.36 0 474.78-0.58Q474.20-1.16 474.20-2.04L474.20-2.04L474.20-2.48Q472.92-1.20 471.16-0.50Q469.40 0.20 467.40 0.20L467.40 0.20Q464.64 0.20 462.44-1Q460.24-2.20 459-4.50Q457.76-6.80 457.76-10.04L457.76-10.04L457.76-19.88Q457.76-20.76 458.34-21.34Q458.92-21.92 459.80-21.92L459.80-21.92Q460.68-21.92 461.26-21.34Q461.84-20.76 461.84-19.88L461.84-19.88L461.84-10.04Q461.84-6.80 463.58-5.14Q465.32-3.48 468.20-3.48L468.20-3.48Q469.88-3.48 471.26-4.16Q472.64-4.84 473.42-6Q474.20-7.16 474.20-8.60L474.20-8.60L474.20-19.88Q474.20-20.80 474.78-21.36Q475.36-21.92 476.24-21.92L476.24-21.92Z M500.20-22.12Q502.32-22.12 503.52-21.48Q504.72-20.84 504.72-19.88L504.72-19.88Q504.72-19.60 504.68-19.48L504.68-19.48Q504.32-18.20 503.08-18.20L503.08-18.20Q502.88-18.20 502.48-18.28L502.48-18.28Q500.88-18.56 499.88-18.56L499.88-18.56Q497-18.56 495.24-17.24Q493.48-15.92 493.48-13.68L493.48-13.68L493.48-2Q493.48-1.04 492.98-0.52Q492.48 0 491.48 0L491.48 0Q490.52 0 490-0.50Q489.48-1 489.48-2L489.48-2L489.48-19.88Q489.48-20.84 490-21.36Q490.52-21.88 491.48-21.88L491.48-21.88Q493.48-21.88 493.48-19.88L493.48-19.88L493.48-19.12Q494.68-20.52 496.44-21.32Q498.20-22.12 500.20-22.12L500.20-22.12Z M548.28-11.28Q548.28-10.52 547.76-10.02Q547.24-9.52 546.44-9.52L546.44-9.52L531.24-9.52Q531.68-6.72 533.78-5Q535.88-3.28 538.92-3.28L538.92-3.28Q540.12-3.28 541.42-3.72Q542.72-4.16 543.56-4.80L543.56-4.80Q544.12-5.24 544.88-5.24L544.88-5.24Q545.64-5.24 546.08-4.84L546.08-4.84Q546.80-4.24 546.80-3.48L546.80-3.48Q546.80-2.76 546.16-2.28L546.16-2.28Q544.80-1.20 542.78-0.52Q540.76 0.16 538.92 0.16L538.92 0.16Q535.64 0.16 533.04-1.26Q530.44-2.68 528.98-5.20Q527.52-7.72 527.52-10.92L527.52-10.92Q527.52-14.12 528.90-16.66Q530.28-19.20 532.74-20.62Q535.20-22.04 538.32-22.04L538.32-22.04Q541.40-22.04 543.64-20.68Q545.88-19.32 547.08-16.88Q548.28-14.44 548.28-11.28L548.28-11.28ZM538.32-18.60Q535.40-18.60 533.58-17Q531.76-15.40 531.28-12.72L531.28-12.72L544.60-12.72Q544.24-15.40 542.60-17Q540.96-18.60 538.32-18.60L538.32-18.60Z M575.52-21.92Q576.44-21.92 577-21.36Q577.56-20.80 577.56-19.88L577.56-19.88L577.56-2.04Q577.56-1.16 577-0.58Q576.44 0 575.52 0L575.52 0Q574.64 0 574.06-0.58Q573.48-1.16 573.48-2.04L573.48-2.04L573.48-2.48Q572.20-1.20 570.44-0.50Q568.68 0.20 566.68 0.20L566.68 0.20Q563.92 0.20 561.72-1Q559.52-2.20 558.28-4.50Q557.04-6.80 557.04-10.04L557.04-10.04L557.04-19.88Q557.04-20.76 557.62-21.34Q558.20-21.92 559.08-21.92L559.08-21.92Q559.96-21.92 560.54-21.34Q561.12-20.76 561.12-19.88L561.12-19.88L561.12-10.04Q561.12-6.80 562.86-5.14Q564.60-3.48 567.48-3.48L567.48-3.48Q569.16-3.48 570.54-4.16Q571.92-4.84 572.70-6Q573.48-7.16 573.48-8.60L573.48-8.60L573.48-19.88Q573.48-20.80 574.06-21.36Q574.64-21.92 575.52-21.92L575.52-21.92Z M598.48-22.04Q603.20-22.04 606.32-18.44L606.32-18.44Q606.72-18 606.72-17.40L606.72-17.40Q606.72-16.52 605.84-15.92L605.84-15.92Q605.44-15.64 604.92-15.64L604.92-15.64Q604-15.64 603.36-16.36L603.36-16.36Q602.36-17.44 601.18-17.94Q600-18.44 598.48-18.44L598.48-18.44Q595.40-18.44 593.48-16.38Q591.56-14.32 591.56-10.92L591.56-10.92Q591.56-8.76 592.46-7.06Q593.36-5.36 594.98-4.40Q596.60-3.44 598.68-3.44L598.68-3.44Q601.40-3.44 603.08-4.84L603.08-4.84Q603.84-5.40 604.56-5.40L604.56-5.40Q605.12-5.40 605.60-5.04L605.60-5.04Q606.36-4.40 606.36-3.60L606.36-3.60Q606.36-3 605.88-2.52L605.88-2.52Q603 0.16 598.68 0.16L598.68 0.16Q595.52 0.16 593-1.28Q590.48-2.72 589.06-5.26Q587.64-7.80 587.64-10.92L587.64-10.92Q587.64-14.12 589.02-16.66Q590.40-19.20 592.88-20.62Q595.36-22.04 598.48-22.04L598.48-22.04Z M627.68-22.08Q630.44-22.08 632.64-20.88Q634.84-19.68 636.08-17.38Q637.32-15.08 637.32-11.84L637.32-11.84L637.32-2Q637.32-1.12 636.74-0.54Q636.16 0.04 635.28 0.04L635.28 0.04Q634.40 0.04 633.82-0.54Q633.24-1.12 633.24-2L633.24-2L633.24-11.84Q633.24-15.08 631.50-16.74Q629.76-18.40 626.88-18.40L626.88-18.40Q625.20-18.40 623.82-17.72Q622.44-17.04 621.66-15.88Q620.88-14.72 620.88-13.28L620.88-13.28L620.88-2Q620.88-1.12 620.32-0.54Q619.76 0.04 618.84 0.04L618.84 0.04Q617.96 0.04 617.38-0.54Q616.80-1.12 616.80-2L616.80-2L616.80-29.20Q616.80-30.12 617.38-30.68Q617.96-31.24 618.84-31.24L618.84-31.24Q619.76-31.24 620.32-30.68Q620.88-30.12 620.88-29.20L620.88-29.20L620.88-19.40Q622.16-20.68 623.92-21.38Q625.68-22.08 627.68-22.08L627.68-22.08Z M687.08-21.88Q687.92-21.88 688.34-21.44Q688.76-21 688.76-20.24L688.76-20.24Q688.76-19.60 688.56-19.08L688.56-19.08L682.64-1.32Q682.44-0.76 681.92-0.38Q681.40 0 680.76 0L680.76 0Q680.08 0 679.54-0.38Q679-0.76 678.84-1.32L678.84-1.32L674.92-15.84L670.80-1.32Q670.60-0.76 670.06-0.38Q669.52 0 668.88 0L668.88 0Q668.24 0 667.70-0.38Q667.16-0.76 666.96-1.32L666.96-1.32L661.04-19.08Q660.88-19.60 660.88-20.20L660.88-20.20Q660.88-21.88 662.56-21.88L662.56-21.88Q663.32-21.88 663.82-21.44Q664.32-21 664.64-20.04L664.64-20.04L668.96-6.56L673.04-20.36Q673.24-21.04 673.74-21.46Q674.24-21.88 675.04-21.88L675.04-21.88Q675.80-21.88 676.30-21.46Q676.80-21.04 677-20.36L677-20.36L680.60-6.28L685-20.04Q685.56-21.88 687.08-21.88L687.08-21.88Z M715.80-11.28Q715.80-10.52 715.28-10.02Q714.76-9.52 713.96-9.52L713.96-9.52L698.76-9.52Q699.20-6.72 701.30-5Q703.40-3.28 706.44-3.28L706.44-3.28Q707.64-3.28 708.94-3.72Q710.24-4.16 711.08-4.80L711.08-4.80Q711.64-5.24 712.40-5.24L712.40-5.24Q713.16-5.24 713.60-4.84L713.60-4.84Q714.32-4.24 714.32-3.48L714.32-3.48Q714.32-2.76 713.68-2.28L713.68-2.28Q712.32-1.20 710.30-0.52Q708.28 0.16 706.44 0.16L706.44 0.16Q703.16 0.16 700.56-1.26Q697.96-2.68 696.50-5.20Q695.04-7.72 695.04-10.92L695.04-10.92Q695.04-14.12 696.42-16.66Q697.80-19.20 700.26-20.62Q702.72-22.04 705.84-22.04L705.84-22.04Q708.92-22.04 711.16-20.68Q713.40-19.32 714.60-16.88Q715.80-14.44 715.80-11.28L715.80-11.28ZM705.84-18.60Q702.92-18.60 701.10-17Q699.28-15.40 698.80-12.72L698.80-12.72L712.12-12.72Q711.76-15.40 710.12-17Q708.48-18.60 705.84-18.60L705.84-18.60Z M734.12-22.04Q737.28-22.04 739.78-20.62Q742.28-19.20 743.70-16.68Q745.12-14.16 745.12-10.92L745.12-10.92L745.12-2.28Q745.12 0.88 743.72 3.48Q742.32 6.08 739.78 7.58Q737.24 9.08 734.04 9.08L734.04 9.08Q731.16 9.08 728.68 7.94Q726.20 6.80 724.52 4.68L724.52 4.68Q724.08 4.12 724.08 3.56L724.08 3.56Q724.08 2.72 724.92 2.12L724.92 2.12Q725.48 1.76 726.04 1.76L726.04 1.76Q727.04 1.76 727.68 2.60L727.68 2.60Q728.76 4 730.40 4.74Q732.04 5.48 734.12 5.48L734.12 5.48Q736.08 5.48 737.68 4.54Q739.28 3.60 740.24 1.78Q741.20-0.04 741.20-2.56L741.20-2.56L741.20-4.52Q739.96-2.32 737.92-1.08Q735.88 0.16 733.32 0.16L733.32 0.16Q730.36 0.16 728.02-1.26Q725.68-2.68 724.38-5.20Q723.08-7.72 723.08-10.92L723.08-10.92Q723.08-14.16 724.48-16.68Q725.88-19.20 728.40-20.62Q730.92-22.04 734.12-22.04L734.12-22.04ZM734.12-3.44Q736.16-3.44 737.78-4.40Q739.40-5.36 740.30-7.06Q741.20-8.76 741.20-10.92L741.20-10.92Q741.20-13.08 740.30-14.80Q739.40-16.52 737.78-17.48Q736.16-18.44 734.12-18.44L734.12-18.44Q732.08-18.44 730.46-17.48Q728.84-16.52 727.92-14.80Q727.00-13.08 727.00-10.92L727.00-10.92Q727.00-8.76 727.92-7.06Q728.84-5.36 730.46-4.40Q732.08-3.44 734.12-3.44L734.12-3.44Z"/></g>
</svg>
</g><g opacity="1" transform="rotate(0 89.2225 303.6983)">
<svg width="214.5556" height="20.1107" x="89.2225" y="303.6983" version="1.1" preserveAspectRatio="none" viewBox="0.72 -31.24 430.15999999999997 40.32">
  <g transform="matrix(1 0 0 1 0 0)" class="aD6z1nYkhcolor"><path id="id-D6z1nYkh18" d="M27.36-2.92Q27.56-2.40 27.56-2.04L27.56-2.04Q27.56-1.20 26.96-0.60Q26.36 0 25.48 0L25.48 0Q24.88 0 24.34-0.34Q23.80-0.68 23.56-1.28L23.56-1.28L21.32-6.88L6.96-6.88L4.68-1.28Q4.40-0.68 3.88-0.34Q3.36 0 2.76 0L2.76 0Q1.88 0 1.30-0.62Q0.72-1.24 0.72-2.08L0.72-2.08Q0.72-2.48 0.92-3L0.92-3L12.16-29.84Q12.76-31.24 14.12-31.24L14.12-31.24Q15.56-31.24 16.08-29.84L16.08-29.84L27.36-2.92ZM8.36-10.32L19.92-10.32L14.20-24.56L8.36-10.32Z M32.92-29.24Q32.92-30.12 33.48-30.68Q34.04-31.24 34.92-31.24L34.92-31.24Q35.80-31.24 36.36-30.68Q36.92-30.12 36.92-29.24L36.92-29.24L36.92-7.40Q36.92-5.92 37.48-4.96Q38.04-4 38.92-4L38.92-4L39.92-4Q40.72-4 41.22-3.44Q41.72-2.88 41.72-2L41.72-2Q41.72-1.12 40.96-0.56Q40.20 0 39 0L39 0L38.92 0Q37.20 0 35.82-0.94Q34.44-1.88 33.68-3.58Q32.92-5.28 32.92-7.40L32.92-7.40L32.92-29.24Z M49.76-31.24Q48.84-31.24 48.28-30.68Q47.72-30.12 47.72-29.20L47.72-29.20L47.72-10.96Q47.72-7.84 49.18-5.30Q50.64-2.76 53.14-1.30Q55.64 0.16 58.72 0.16L58.72 0.16Q61.80 0.16 64.34-1.30Q66.88-2.76 68.32-5.30Q69.76-7.84 69.76-10.96L69.76-10.96Q69.76-14.08 68.42-16.62Q67.08-19.16 64.74-20.60Q62.40-22.04 59.52-22.04L59.52-22.04Q57.20-22.04 55.20-21.08Q53.20-20.12 51.80-18.40L51.80-18.40L51.80-29.20Q51.80-30.12 51.22-30.68Q50.64-31.24 49.76-31.24L49.76-31.24ZM58.72-3.44Q56.72-3.44 55.10-4.42Q53.48-5.40 52.56-7.12Q51.64-8.84 51.64-10.96L51.64-10.96Q51.64-13.08 52.56-14.78Q53.48-16.48 55.10-17.46Q56.72-18.44 58.72-18.44L58.72-18.44Q60.72-18.44 62.34-17.46Q63.96-16.48 64.90-14.78Q65.84-13.08 65.84-10.96L65.84-10.96Q65.84-8.84 64.90-7.12Q63.96-5.40 62.34-4.42Q60.72-3.44 58.72-3.44L58.72-3.44Z M88.56-22.12Q90.68-22.12 91.88-21.48Q93.08-20.84 93.08-19.88L93.08-19.88Q93.08-19.60 93.04-19.48L93.04-19.48Q92.68-18.20 91.44-18.20L91.44-18.20Q91.24-18.20 90.84-18.28L90.84-18.28Q89.24-18.56 88.24-18.56L88.24-18.56Q85.36-18.56 83.60-17.24Q81.84-15.92 81.84-13.68L81.84-13.68L81.84-2Q81.84-1.04 81.34-0.52Q80.84 0 79.84 0L79.84 0Q78.88 0 78.36-0.50Q77.84-1 77.84-2L77.84-2L77.84-19.88Q77.84-20.84 78.36-21.36Q78.88-21.88 79.84-21.88L79.84-21.88Q81.84-21.88 81.84-19.88L81.84-19.88L81.84-19.12Q83.04-20.52 84.80-21.32Q86.56-22.12 88.56-22.12L88.56-22.12Z M117.32-11.28Q117.32-10.52 116.80-10.02Q116.28-9.52 115.48-9.52L115.48-9.52L100.28-9.52Q100.72-6.72 102.82-5Q104.92-3.28 107.96-3.28L107.96-3.28Q109.16-3.28 110.46-3.72Q111.76-4.16 112.60-4.80L112.60-4.80Q113.16-5.24 113.92-5.24L113.92-5.24Q114.68-5.24 115.12-4.84L115.12-4.84Q115.84-4.24 115.84-3.48L115.84-3.48Q115.84-2.76 115.20-2.28L115.20-2.28Q113.84-1.20 111.82-0.52Q109.80 0.16 107.96 0.16L107.96 0.16Q104.68 0.16 102.08-1.26Q99.48-2.68 98.02-5.20Q96.56-7.72 96.56-10.92L96.56-10.92Q96.56-14.12 97.94-16.66Q99.32-19.20 101.78-20.62Q104.24-22.04 107.36-22.04L107.36-22.04Q110.44-22.04 112.68-20.68Q114.92-19.32 116.12-16.88Q117.32-14.44 117.32-11.28L117.32-11.28ZM107.36-18.60Q104.44-18.60 102.62-17Q100.80-15.40 100.32-12.72L100.32-12.72L113.64-12.72Q113.28-15.40 111.64-17Q110.00-18.60 107.36-18.60L107.36-18.60Z M133.44-22.04Q138.16-22.04 141.28-18.44L141.28-18.44Q141.68-18 141.68-17.40L141.68-17.40Q141.68-16.52 140.80-15.92L140.80-15.92Q140.40-15.64 139.88-15.64L139.88-15.64Q138.96-15.64 138.32-16.36L138.32-16.36Q137.32-17.44 136.14-17.94Q134.96-18.44 133.44-18.44L133.44-18.44Q130.36-18.44 128.44-16.38Q126.52-14.32 126.52-10.92L126.52-10.92Q126.52-8.76 127.42-7.06Q128.32-5.36 129.94-4.40Q131.56-3.44 133.64-3.44L133.64-3.44Q136.36-3.44 138.04-4.84L138.04-4.84Q138.80-5.40 139.52-5.40L139.52-5.40Q140.08-5.40 140.56-5.04L140.56-5.04Q141.32-4.40 141.32-3.60L141.32-3.60Q141.32-3 140.84-2.52L140.84-2.52Q137.96 0.16 133.64 0.16L133.64 0.16Q130.48 0.16 127.96-1.28Q125.44-2.72 124.02-5.26Q122.60-7.80 122.60-10.92L122.60-10.92Q122.60-14.12 123.98-16.66Q125.36-19.20 127.84-20.62Q130.32-22.04 133.44-22.04L133.44-22.04Z M160.64-22.08Q163.40-22.08 165.60-20.88Q167.80-19.68 169.04-17.38Q170.28-15.08 170.28-11.84L170.28-11.84L170.28-2Q170.28-1.12 169.70-0.54Q169.12 0.04 168.24 0.04L168.24 0.04Q167.36 0.04 166.78-0.54Q166.20-1.12 166.20-2L166.20-2L166.20-11.84Q166.20-15.08 164.46-16.74Q162.72-18.40 159.84-18.40L159.84-18.40Q158.16-18.40 156.78-17.72Q155.40-17.04 154.62-15.88Q153.84-14.72 153.84-13.28L153.84-13.28L153.84-2Q153.84-1.12 153.28-0.54Q152.72 0.04 151.80 0.04L151.80 0.04Q150.92 0.04 150.34-0.54Q149.76-1.12 149.76-2L149.76-2L149.76-29.20Q149.76-30.12 150.34-30.68Q150.92-31.24 151.80-31.24L151.80-31.24Q152.72-31.24 153.28-30.68Q153.84-30.12 153.84-29.20L153.84-29.20L153.84-19.40Q155.12-20.68 156.88-21.38Q158.64-22.08 160.64-22.08L160.64-22.08Z M188.40-4Q189.12-4 189.62-3.44Q190.12-2.88 190.12-2L190.12-2Q190.12-1.12 189.46-0.56Q188.80 0 187.76 0L187.76 0L187.04 0Q185.08 0 183.46-1.02Q181.84-2.04 180.92-3.80Q180.00-5.56 180.00-7.76L180.00-7.76L180.00-17.64L178.16-17.64Q177.32-17.64 176.80-18.12Q176.28-18.60 176.28-19.32L176.28-19.32Q176.28-20.12 176.80-20.60Q177.32-21.08 178.16-21.08L178.16-21.08L180.00-21.08L180.00-26.84Q180.00-27.72 180.56-28.28Q181.12-28.84 182.00-28.84L182.00-28.84Q182.88-28.84 183.44-28.28Q184.00-27.72 184.00-26.84L184.00-26.84L184.00-21.08L187.40-21.08Q188.24-21.08 188.76-20.60Q189.28-20.12 189.28-19.32L189.28-19.32Q189.28-18.60 188.76-18.12Q188.24-17.64 187.40-17.64L187.40-17.64L184.00-17.64L184.00-7.76Q184.00-6.16 184.88-5.08Q185.76-4 187.04-4L187.04-4L188.40-4Z M231.52-3.20Q231.92-2.56 231.92-1.88L231.92-1.88Q231.92-1.08 231.38-0.54Q230.84 0 229.92 0L229.92 0Q228.76 0 228.12-1L228.12-1L221.24-12.04L220.52-12.04L215.40-12.04L215.40-2.08Q215.40-1.20 214.82-0.60Q214.24 0 213.32 0L213.32 0Q212.44 0 211.84-0.60Q211.24-1.20 211.24-2.08L211.24-2.08L211.24-29.16Q211.24-30.08 211.84-30.66Q212.44-31.24 213.32-31.24L213.32-31.24L220.52-31.24Q223.48-31.24 225.82-30Q228.16-28.76 229.46-26.52Q230.76-24.28 230.76-21.40L230.76-21.40Q230.76-18.56 229.32-16.36Q227.88-14.16 225.40-13.04L225.40-13.04L231.52-3.20ZM215.40-15.88L220.52-15.88Q223.24-15.88 225-17.42Q226.76-18.96 226.76-21.40L226.76-21.40Q226.76-24.04 225-25.72Q223.24-27.40 220.52-27.40L220.52-27.40L215.40-27.40L215.40-15.88Z M257.76-11.28Q257.76-10.52 257.24-10.02Q256.72-9.52 255.92-9.52L255.92-9.52L240.72-9.52Q241.16-6.72 243.26-5Q245.36-3.28 248.40-3.28L248.40-3.28Q249.60-3.28 250.90-3.72Q252.20-4.16 253.04-4.80L253.04-4.80Q253.60-5.24 254.36-5.24L254.36-5.24Q255.12-5.24 255.56-4.84L255.56-4.84Q256.28-4.24 256.28-3.48L256.28-3.48Q256.28-2.76 255.64-2.28L255.64-2.28Q254.28-1.20 252.26-0.52Q250.24 0.16 248.40 0.16L248.40 0.16Q245.12 0.16 242.52-1.26Q239.92-2.68 238.46-5.20Q237-7.72 237-10.92L237-10.92Q237-14.12 238.38-16.66Q239.76-19.20 242.22-20.62Q244.68-22.04 247.80-22.04L247.80-22.04Q250.88-22.04 253.12-20.68Q255.36-19.32 256.56-16.88Q257.76-14.44 257.76-11.28L257.76-11.28ZM247.80-18.60Q244.88-18.60 243.06-17Q241.24-15.40 240.76-12.72L240.76-12.72L254.08-12.72Q253.72-15.40 252.08-17Q250.44-18.60 247.80-18.60L247.80-18.60Z M265.36-19.84Q265.36-20.76 265.94-21.32Q266.52-21.88 267.40-21.88L267.40-21.88Q268.32-21.88 268.88-21.32Q269.44-20.76 269.44-19.84L269.44-19.84L269.44-2.04Q269.44-1.16 268.88-0.58Q268.32 0 267.40 0L267.40 0Q266.52 0 265.94-0.58Q265.36-1.16 265.36-2.04L265.36-2.04L265.36-19.84ZM267.40-30.72Q268.48-30.72 269.26-29.94Q270.04-29.16 270.04-28.08L270.04-28.08Q270.04-27 269.26-26.22Q268.48-25.44 267.40-25.44L267.40-25.44Q266.32-25.44 265.54-26.22Q264.76-27 264.76-28.08L264.76-28.08Q264.76-29.16 265.54-29.94Q266.32-30.72 267.40-30.72L267.40-30.72Z M289.92-22.08Q292.68-22.08 294.88-20.88Q297.08-19.68 298.32-17.38Q299.56-15.08 299.56-11.84L299.56-11.84L299.56-2Q299.56-1.12 298.98-0.54Q298.40 0.04 297.52 0.04L297.52 0.04Q296.64 0.04 296.06-0.54Q295.48-1.12 295.48-2L295.48-2L295.48-11.84Q295.48-15.08 293.74-16.74Q292-18.40 289.12-18.40L289.12-18.40Q287.44-18.40 286.06-17.72Q284.68-17.04 283.90-15.88Q283.12-14.72 283.12-13.28L283.12-13.28L283.12-2Q283.12-1.12 282.56-0.54Q282 0.04 281.08 0.04L281.08 0.04Q280.20 0.04 279.62-0.54Q279.04-1.12 279.04-2L279.04-2L279.04-19.84Q279.04-20.76 279.62-21.32Q280.20-21.88 281.08-21.88L281.08-21.88Q282-21.88 282.56-21.32Q283.12-20.76 283.12-19.84L283.12-19.84L283.12-19.40Q284.40-20.68 286.16-21.38Q287.92-22.08 289.92-22.08L289.92-22.08Z M308.72-19.84Q308.72-20.76 309.30-21.32Q309.88-21.88 310.76-21.88L310.76-21.88Q311.68-21.88 312.24-21.32Q312.80-20.76 312.80-19.84L312.80-19.84L312.80-2.04Q312.80-1.16 312.24-0.58Q311.68 0 310.76 0L310.76 0Q309.88 0 309.30-0.58Q308.72-1.16 308.72-2.04L308.72-2.04L308.72-19.84ZM310.76-30.72Q311.84-30.72 312.62-29.94Q313.40-29.16 313.40-28.08L313.40-28.08Q313.40-27 312.62-26.22Q311.84-25.44 310.76-25.44L310.76-25.44Q309.68-25.44 308.90-26.22Q308.12-27 308.12-28.08L308.12-28.08Q308.12-29.16 308.90-29.94Q309.68-30.72 310.76-30.72L310.76-30.72Z M332.32-22.04Q335.48-22.04 337.98-20.62Q340.48-19.20 341.90-16.68Q343.32-14.16 343.32-10.92L343.32-10.92L343.32-2.28Q343.32 0.88 341.92 3.48Q340.52 6.08 337.98 7.58Q335.44 9.08 332.24 9.08L332.24 9.08Q329.36 9.08 326.88 7.94Q324.40 6.80 322.72 4.68L322.72 4.68Q322.28 4.12 322.28 3.56L322.28 3.56Q322.28 2.72 323.12 2.12L323.12 2.12Q323.68 1.76 324.24 1.76L324.24 1.76Q325.24 1.76 325.88 2.60L325.88 2.60Q326.96 4 328.60 4.74Q330.24 5.48 332.32 5.48L332.32 5.48Q334.28 5.48 335.88 4.54Q337.48 3.60 338.44 1.78Q339.40-0.04 339.40-2.56L339.40-2.56L339.40-4.52Q338.16-2.32 336.12-1.08Q334.08 0.16 331.52 0.16L331.52 0.16Q328.56 0.16 326.22-1.26Q323.88-2.68 322.58-5.20Q321.28-7.72 321.28-10.92L321.28-10.92Q321.28-14.16 322.68-16.68Q324.08-19.20 326.60-20.62Q329.12-22.04 332.32-22.04L332.32-22.04ZM332.32-3.44Q334.36-3.44 335.98-4.40Q337.60-5.36 338.50-7.06Q339.40-8.76 339.40-10.92L339.40-10.92Q339.40-13.08 338.50-14.80Q337.60-16.52 335.98-17.48Q334.36-18.44 332.32-18.44L332.32-18.44Q330.28-18.44 328.66-17.48Q327.04-16.52 326.12-14.80Q325.20-13.08 325.20-10.92L325.20-10.92Q325.20-8.76 326.12-7.06Q327.04-5.36 328.66-4.40Q330.28-3.44 332.32-3.44L332.32-3.44Z M369.44-21.92Q370.36-21.92 370.92-21.36Q371.48-20.80 371.48-19.88L371.48-19.88L371.48-2.04Q371.48-1.16 370.92-0.58Q370.36 0 369.44 0L369.44 0Q368.56 0 367.98-0.58Q367.40-1.16 367.40-2.04L367.40-2.04L367.40-2.48Q366.12-1.20 364.36-0.50Q362.60 0.20 360.60 0.20L360.60 0.20Q357.84 0.20 355.64-1Q353.44-2.20 352.20-4.50Q350.96-6.80 350.96-10.04L350.96-10.04L350.96-19.88Q350.96-20.76 351.54-21.34Q352.12-21.92 353-21.92L353-21.92Q353.88-21.92 354.46-21.34Q355.04-20.76 355.04-19.88L355.04-19.88L355.04-10.04Q355.04-6.80 356.78-5.14Q358.52-3.48 361.40-3.48L361.40-3.48Q363.08-3.48 364.46-4.16Q365.84-4.84 366.62-6Q367.40-7.16 367.40-8.60L367.40-8.60L367.40-19.88Q367.40-20.80 367.98-21.36Q368.56-21.92 369.44-21.92L369.44-21.92Z M391.56-22.08Q394.32-22.08 396.52-20.88Q398.72-19.68 399.96-17.38Q401.20-15.08 401.20-11.84L401.20-11.84L401.20-2Q401.20-1.12 400.62-0.54Q400.04 0.04 399.16 0.04L399.16 0.04Q398.28 0.04 397.70-0.54Q397.12-1.12 397.12-2L397.12-2L397.12-11.84Q397.12-15.08 395.38-16.74Q393.64-18.40 390.76-18.40L390.76-18.40Q389.08-18.40 387.70-17.72Q386.32-17.04 385.54-15.88Q384.76-14.72 384.76-13.28L384.76-13.28L384.76-2Q384.76-1.12 384.20-0.54Q383.64 0.04 382.72 0.04L382.72 0.04Q381.84 0.04 381.26-0.54Q380.68-1.12 380.68-2L380.68-2L380.68-19.84Q380.68-20.76 381.26-21.32Q381.84-21.88 382.72-21.88L382.72-21.88Q383.64-21.88 384.20-21.32Q384.76-20.76 384.76-19.84L384.76-19.84L384.76-19.40Q386.04-20.68 387.80-21.38Q389.56-22.08 391.56-22.08L391.56-22.08Z M419.88-22.04Q423.04-22.04 425.54-20.62Q428.04-19.20 429.46-16.68Q430.88-14.16 430.88-10.92L430.88-10.92L430.88-2.28Q430.88 0.88 429.48 3.48Q428.08 6.08 425.54 7.58Q423 9.08 419.80 9.08L419.80 9.08Q416.92 9.08 414.44 7.94Q411.96 6.80 410.28 4.68L410.28 4.68Q409.84 4.12 409.84 3.56L409.84 3.56Q409.84 2.72 410.68 2.12L410.68 2.12Q411.24 1.76 411.80 1.76L411.80 1.76Q412.80 1.76 413.44 2.60L413.44 2.60Q414.52 4 416.16 4.74Q417.80 5.48 419.88 5.48L419.88 5.48Q421.84 5.48 423.44 4.54Q425.04 3.60 426 1.78Q426.96-0.04 426.96-2.56L426.96-2.56L426.96-4.52Q425.72-2.32 423.68-1.08Q421.64 0.16 419.08 0.16L419.08 0.16Q416.12 0.16 413.78-1.26Q411.44-2.68 410.14-5.20Q408.84-7.72 408.84-10.92L408.84-10.92Q408.84-14.16 410.24-16.68Q411.64-19.20 414.16-20.62Q416.68-22.04 419.88-22.04L419.88-22.04ZM419.88-3.44Q421.92-3.44 423.54-4.40Q425.16-5.36 426.06-7.06Q426.96-8.76 426.96-10.92L426.96-10.92Q426.96-13.08 426.06-14.80Q425.16-16.52 423.54-17.48Q421.92-18.44 419.88-18.44L419.88-18.44Q417.84-18.44 416.22-17.48Q414.60-16.52 413.68-14.80Q412.76-13.08 412.76-10.92L412.76-10.92Q412.76-8.76 413.68-7.06Q414.60-5.36 416.22-4.40Q417.84-3.44 419.88-3.44L419.88-3.44Z"/></g>
</svg>
</g><g opacity="1" transform="rotate(0 110.4357 134.501)">
<svg width="183.454" height="156.6731" x="110.4357" y="134.501" version="1.1" preserveAspectRatio="none" viewBox="2.163999557495117 9.147994995117188 95.67001342773438 81.7040023803711">
  <g transform="matrix(1 0 0 1 0 0)" class="aLgOaV3zRcolors-0"><path d="M93.146,53.175c2.949-1.872,3.821-6.621,4.664-8.872l0.024-0.169l-0.17,0.017c-4.612,0.469-7.021,2.95-8.284,4.802  c0.308-1.953,0.468-3.929,0.468-5.919c0-0.024-0.001-0.047-0.001-0.071l0.02,0.027c0,0,2.312-0.332,4.461-2.856  c2.264-2.66,1.694-7.454,1.835-9.854l-0.027-0.169l-0.157,0.067c-4.351,1.846-5.896,5.012-6.531,7.159  c-0.242-1.709-0.596-3.394-1.051-5.045c0.445-0.238,2.202-1.305,3.388-3.925c1.438-3.183-0.437-7.632-0.966-9.977l-0.072-0.155  l-0.133,0.107c-3.421,2.776-4.181,5.979-4.282,8.215c-0.536-1.193-1.13-2.36-1.782-3.499l0.024,0.011c0,0,1.777-1.425,2.328-4.61  c0.581-3.356-2.275-7.098-3.348-9.182l-0.106-0.128l-0.099,0.134c-2.648,3.588-2.477,6.911-1.983,9.04  c-0.399-0.513-0.813-1.018-1.24-1.514c-0.071-1.121-0.642-2.509-1.95-3.98c-1.437-1.618-4.195-3.92-9.004-3.632l-0.166,0.01  l0.051,0.159c1.163,2.035,2.745,6.469,5.876,7.809c1.76,0.753,3.229,0.81,4.141,0.731c0.478,0.559,0.938,1.13,1.381,1.712  c-0.042-0.017-0.081-0.033-0.122-0.049c-2.021-0.772-5.531-1.543-9.664,0.929l-0.144,0.085l0.117,0.118  c1.971,1.269,5.419,4.474,8.815,4.22c1.728-0.129,2.98-0.656,3.776-1.119c0.786,1.371,1.484,2.787,2.095,4.239  c-0.113-0.087-0.231-0.175-0.353-0.261c-1.809-1.286-5.096-2.953-9.835-1.561l-0.164,0.048l0.087,0.147  c1.63,1.767,4.231,5.834,7.668,6.454c1.856,0.335,3.302,0.088,4.204-0.188c0.455,1.647,0.804,3.329,1.038,5.036  c-0.009-0.011-0.016-0.021-0.024-0.032c-1.382-1.736-4.079-4.248-9.02-4.222l-0.17,0.001l0.042,0.166  c1.077,2.149,2.451,6.778,5.582,8.325c1.611,0.797,3.008,0.981,3.953,0.984c0,0.032,0.001,0.064,0.001,0.096  c0,2.039-0.171,4.064-0.508,6.063c-0.019-0.049-0.035-0.098-0.055-0.148c-0.807-2.068-2.642-5.264-7.368-6.698l-0.163-0.05  l-0.009,0.17c0.395,2.372,0.339,7.2,2.873,9.604c1.321,1.253,2.618,1.841,3.521,2.118c-0.572,1.825-1.288,3.616-2.138,5.365  c-0.003-0.17-0.009-0.344-0.021-0.523c-0.136-2.215-0.903-5.818-4.965-8.631l-0.142-0.097l-0.06,0.16  c-0.35,2.379-1.88,6.958-0.203,10.021c0.998,1.822,2.232,2.814,3.016,3.301c-1.044,1.63-2.214,3.212-3.504,4.734  c0.032-0.146,0.062-0.294,0.089-0.446c0.407-2.275,0.518-6.111-2.901-9.956l-0.118-0.133l-0.101,0.146  c-0.938,2.32-3.614,6.578-2.67,10.091c0.546,2.031,1.509,3.32,2.18,4.021c-0.188,0.178-0.374,0.356-0.564,0.532  c-1.361,1.253-2.711,2.37-4.043,3.374c0.043-0.107,0.087-0.214,0.127-0.326c0.845-2.292,1.667-6.265-1.181-10.897l-0.099-0.161  l-0.133,0.135c-1.405,2.242-4.976,6.18-4.642,10.01c0.173,1.992,0.81,3.421,1.351,4.31c-1.962,1.158-3.866,2.094-5.695,2.87  c0.175-0.195,0.351-0.402,0.524-0.626c1.399-1.802,3.255-5.104,2.031-10.033l-0.042-0.17l-0.155,0.082  c-1.886,1.598-6.177,4.091-6.964,7.595c-0.509,2.264-0.136,3.958,0.154,4.812c-2.058,0.672-3.977,1.184-5.719,1.649  c-0.014,0.003-0.028,0.007-0.042,0.01c-0.014-0.003-0.028-0.007-0.042-0.01c-1.743-0.466-3.662-0.978-5.719-1.649  c0.29-0.854,0.662-2.549,0.154-4.812c-0.787-3.504-5.079-5.997-6.964-7.595l-0.156-0.082l-0.042,0.17  c-1.224,4.929,0.631,8.231,2.032,10.033c0.173,0.224,0.349,0.431,0.524,0.626c-1.83-0.776-3.734-1.712-5.696-2.87  c0.541-0.889,1.177-2.317,1.35-4.31c0.334-3.83-3.236-7.768-4.642-10.01l-0.131-0.135l-0.098,0.161  c-2.848,4.633-2.026,8.605-1.183,10.897c0.042,0.112,0.085,0.219,0.128,0.325c-1.332-1.003-2.681-2.12-4.042-3.373  c-0.191-0.176-0.378-0.354-0.566-0.532c0.671-0.7,1.635-1.989,2.18-4.021c0.944-3.513-1.731-7.771-2.67-10.091l-0.101-0.146  L24.2,58.021c-3.419,3.845-3.31,7.681-2.902,9.956c0.027,0.152,0.058,0.301,0.089,0.446c-1.29-1.522-2.459-3.104-3.503-4.734  c0.783-0.486,2.017-1.479,3.015-3.301c1.678-3.063,0.148-7.643-0.203-10.021l-0.06-0.16l-0.14,0.097  c-4.062,2.812-4.83,6.416-4.966,8.631c-0.011,0.18-0.017,0.354-0.02,0.523c-0.85-1.749-1.566-3.54-2.139-5.365  c0.903-0.277,2.2-0.865,3.521-2.118c2.535-2.404,2.479-7.232,2.873-9.604l-0.008-0.17l-0.164,0.05  c-4.728,1.435-6.561,4.63-7.368,6.698c-0.02,0.05-0.036,0.099-0.055,0.148c-0.336-2-0.508-4.025-0.508-6.064  c0-0.032,0.001-0.064,0.001-0.096c0.944-0.003,2.341-0.187,3.953-0.984c3.131-1.547,4.504-6.176,5.583-8.325l0.042-0.166  l-0.171-0.001c-4.94-0.026-7.636,2.486-9.019,4.222c-0.008,0.011-0.016,0.022-0.024,0.033c0.234-1.707,0.582-3.389,1.037-5.037  c0.903,0.276,2.348,0.523,4.205,0.188c3.438-0.62,6.039-4.688,7.669-6.454l0.086-0.147l-0.164-0.048  c-4.74-1.393-8.026,0.274-9.835,1.561c-0.122,0.086-0.239,0.174-0.353,0.261c0.61-1.452,1.309-2.868,2.095-4.239  c0.796,0.462,2.049,0.99,3.776,1.119c3.396,0.254,6.845-2.951,8.815-4.22l0.118-0.118l-0.143-0.085  c-4.134-2.473-7.644-1.702-9.664-0.929c-0.042,0.016-0.081,0.033-0.123,0.049c0.443-0.582,0.902-1.153,1.38-1.712  c0.912,0.079,2.382,0.022,4.141-0.731c3.131-1.34,4.713-5.774,5.876-7.809l0.051-0.159l-0.167-0.01  c-4.808-0.288-7.567,2.014-9.004,3.632c-1.308,1.471-1.877,2.859-1.949,3.98c-0.427,0.496-0.841,1.001-1.241,1.514  c0.495-2.129,0.666-5.452-1.982-9.04l-0.099-0.134l-0.106,0.128c-1.073,2.084-3.929,5.826-3.348,9.182  c0.552,3.185,2.328,4.61,2.328,4.61l0.025-0.011c-0.653,1.138-1.247,2.306-1.782,3.499c-0.101-2.235-0.861-5.439-4.282-8.215  l-0.132-0.107L9.182,18.39c-0.53,2.345-2.404,6.794-0.965,9.977c1.186,2.62,2.942,3.688,3.388,3.925  c-0.456,1.651-0.809,3.336-1.051,5.045c-0.636-2.146-2.182-5.313-6.533-7.159l-0.157-0.067L3.837,30.28  c0.14,2.4-0.43,7.194,1.834,9.854c2.149,2.525,4.46,2.856,4.46,2.856l0.021-0.027c0,0.024-0.001,0.047-0.001,0.071  c0,1.99,0.16,3.965,0.467,5.918c-1.262-1.852-3.672-4.332-8.284-4.801l-0.17-0.017l0.024,0.169c0.843,2.251,1.715,7,4.664,8.872  c2.686,1.705,4.912,1.438,5.088,1.413c0.495,1.571,1.092,3.118,1.785,4.636c-1.802-1.326-4.772-2.747-9.082-1.83l-0.167,0.035  l0.075,0.154c1.491,1.885,3.774,6.139,7.154,7.019c2.412,0.628,4.188,0.188,4.921-0.068c0.935,1.458,1.964,2.878,3.089,4.253  c-2.141-0.933-5.566-1.733-9.813,0.307l-0.161,0.078l0.114,0.137c1.973,1.541,5.33,5.284,8.967,5.344  c2.779,0.045,4.516-0.969,5.089-1.365c0.179,0.168,0.355,0.337,0.537,0.505c1.251,1.151,2.491,2.191,3.718,3.137  c-2.385-0.622-6.229-0.959-10.432,2.064l-0.152,0.109l0.144,0.121c2.337,1.239,6.522,4.516,10.318,3.907  c3.604-0.581,5.237-2.564,5.237-2.564l-0.046-0.112c-0.014-0.035-0.031-0.068-0.046-0.104c1.618,0.964,3.197,1.777,4.729,2.477  c-2.281,0.229-5.458,1.187-8.103,4.743l-0.104,0.142l0.162,0.067c2.432,0.441,7.083,2.173,10.29,0.556  c2.121-1.07,3.194-2.475,3.652-3.229c1.15,0.374,2.259,0.7,3.317,0.996c-3.044,0.89-5.489,1.872-7.147,3.748l1.132,1.001  c1.79-2.025,4.92-2.915,8.881-3.974c3.961,1.059,7.091,1.948,8.881,3.974l1.133-1.001c-1.658-1.876-4.104-2.858-7.147-3.748  c1.059-0.296,2.168-0.622,3.318-0.996c0.456,0.754,1.531,2.158,3.651,3.229c3.206,1.617,7.858-0.114,10.289-0.556l0.162-0.067  l-0.104-0.142c-2.646-3.557-5.822-4.515-8.104-4.743c1.531-0.699,3.111-1.513,4.728-2.476c-0.015,0.034-0.032,0.067-0.046,0.103  l-0.045,0.112c0,0,1.633,1.983,5.236,2.564c3.796,0.608,7.981-2.668,10.318-3.907l0.145-0.121l-0.153-0.109  c-4.201-3.023-8.046-2.687-10.431-2.064c1.226-0.945,2.467-1.985,3.718-3.137c0.181-0.168,0.357-0.337,0.536-0.505  c0.573,0.396,2.311,1.41,5.089,1.365c3.637-0.06,6.994-3.803,8.967-5.344l0.114-0.137l-0.16-0.078  c-4.248-2.041-7.673-1.239-9.814-0.307c1.126-1.375,2.155-2.795,3.09-4.253c0.734,0.257,2.509,0.696,4.921,0.068  c3.381-0.88,5.663-5.134,7.155-7.019l0.074-0.154l-0.167-0.035c-4.31-0.917-7.279,0.504-9.081,1.83  c0.692-1.518,1.289-3.064,1.784-4.636C88.235,54.612,90.462,54.879,93.146,53.175z M23.856,61.577  c-0.297,4.328-0.406,7.138-0.648,8.873c-0.033-0.034-0.067-0.069-0.099-0.104C23.042,68.83,22.953,64.545,23.856,61.577z   M19.368,53.545c-1.281,4.041-2.024,6.661-2.649,8.216c-0.019-0.033-0.039-0.066-0.057-0.099  C16.918,60.335,17.812,56.176,19.368,53.545z M17.529,44.991c-2.291,3.223-3.758,5.411-4.814,6.737  c-0.016-0.065-0.032-0.131-0.047-0.195C13.486,50.084,15.44,46.846,17.529,44.991z M18.289,35.47  c-3.104,2.374-5.139,4.019-6.539,4.979c0.005-0.071,0.008-0.143,0.013-0.213C13,39.071,15.781,36.608,18.289,35.47z M21.631,27.377  c-3.798,1.483-6.259,2.527-7.868,3.042c0.018-0.052,0.037-0.102,0.054-0.153C15.194,29.547,18.762,27.798,21.631,27.377z   M26.003,20.802c-3.785,0.453-6.311,0.825-7.961,0.936c0.038-0.057,0.075-0.114,0.113-0.171  C19.766,21.204,23.33,20.513,26.003,20.802z M28.013,11.004c-3.152,2.148-5.222,3.644-6.636,4.503l-0.104-0.098  C22.463,14.396,25.419,12.014,28.013,11.004z M16.67,12.628c0.653,3.148,0.034,7.696-0.1,8.597c-0.01,0.016-0.021,0.032-0.032,0.049  C16.423,19.666,16.573,16.963,16.67,12.628z M10.265,21.659c1.334,2.71,1.912,6.86,2.075,8.252c-0.019,0.053-0.035,0.106-0.053,0.16  C11.78,28.475,11.238,25.801,10.265,21.659z M5.782,33.122c2.3,2.527,4.178,7.093,4.431,7.723c-0.001,0.009-0.001,0.02-0.002,0.029  C9.268,39.524,7.984,37.046,5.782,33.122z M4.888,46.442c2.808,1.656,5.797,5.196,6.438,5.976c0.006,0.023,0.012,0.047,0.018,0.07  C10.043,51.462,8.097,49.49,4.888,46.442z M7.776,58.794c2.749,0.62,6.058,2.54,7.453,3.401c0.04,0.071,0.078,0.142,0.117,0.213  C13.781,61.769,11.417,60.547,7.776,58.794z M13.418,69.741c3.105-0.052,7.207,1.215,8.642,1.695  c0.042,0.044,0.085,0.087,0.127,0.13C20.456,71.329,17.709,70.656,13.418,69.741z M21.513,79.018c3.97-0.774,9.885,0.26,9.885,0.26  C29.598,79.402,26.518,79.19,21.513,79.018z M38.562,74.599c1.829,4.152,3.06,6.718,3.603,8.334  c-0.017-0.007-0.034-0.013-0.052-0.02C41.593,82.042,39.19,77.902,38.562,74.599z M30.87,68.593  c0.467,4.354,0.858,7.236,0.953,9.099c-0.058-0.039-0.116-0.076-0.174-0.115C31.269,75.811,30.499,71.672,30.87,68.593z   M33.185,86.523c2.435-1.331,6.076-2.091,7.84-2.4c0.092,0.036,0.187,0.072,0.279,0.106C39.65,84.786,37.044,85.441,33.185,86.523z   M78.487,79.018c-5.006,0.173-8.086,0.385-9.886,0.26C68.602,79.277,74.517,78.243,78.487,79.018z M69.13,68.593  c0.371,3.079-0.398,7.218-0.778,8.983c-0.059,0.039-0.117,0.076-0.174,0.115C68.272,75.829,68.663,72.946,69.13,68.593z   M61.438,74.599c-0.628,3.304-3.03,7.443-3.551,8.314c-0.018,0.007-0.035,0.013-0.052,0.02  C58.378,81.316,59.608,78.751,61.438,74.599z M66.814,86.523c-3.858-1.082-6.465-1.737-8.118-2.294  c0.092-0.034,0.187-0.07,0.278-0.106C60.738,84.433,64.38,85.192,66.814,86.523z M95.112,46.442  c-3.209,3.048-5.155,5.02-6.455,6.046c0.005-0.023,0.011-0.047,0.018-0.07C89.314,51.64,92.304,48.098,95.112,46.442z   M94.218,33.122c-2.202,3.925-3.485,6.403-4.429,7.752c0-0.01-0.001-0.02-0.001-0.029C90.04,40.215,91.919,35.649,94.218,33.122z   M89.736,21.659c-0.975,4.142-1.517,6.816-2.022,8.412c-0.019-0.053-0.035-0.107-0.054-0.16  C87.823,28.517,88.4,24.369,89.736,21.659z M83.33,12.628c0.098,4.335,0.247,7.038,0.132,8.646  c-0.011-0.017-0.021-0.033-0.032-0.049C83.295,20.322,82.678,15.776,83.33,12.628z M71.986,11.004c2.594,1.01,5.55,3.393,6.74,4.405  l-0.104,0.099C77.209,14.647,75.139,13.152,71.986,11.004z M73.997,20.802c2.674-0.289,6.236,0.402,7.849,0.765  c0.038,0.057,0.074,0.115,0.112,0.171C80.308,21.627,77.782,21.255,73.997,20.802z M78.368,27.377  c2.87,0.421,6.437,2.169,7.813,2.889c0.019,0.051,0.037,0.101,0.055,0.153C84.628,29.904,82.167,28.861,78.368,27.377z   M81.712,35.47c2.507,1.138,5.288,3.601,6.524,4.765c0.006,0.071,0.009,0.143,0.013,0.214C86.851,39.489,84.815,37.843,81.712,35.47  z M82.472,44.991c2.088,1.854,4.042,5.093,4.859,6.541c-0.016,0.065-0.031,0.131-0.046,0.196  C86.229,50.402,84.762,48.214,82.472,44.991z M80.633,53.545c1.555,2.631,2.449,6.789,2.706,8.117  c-0.019,0.032-0.038,0.064-0.058,0.099C82.656,60.205,81.913,57.586,80.633,53.545z M76.891,70.348  c-0.032,0.034-0.066,0.068-0.1,0.103c-0.24-1.735-0.351-4.544-0.647-8.873C77.047,64.545,76.957,68.83,76.891,70.348z   M86.582,69.741c-4.292,0.915-7.037,1.588-8.769,1.825c0.042-0.043,0.085-0.087,0.127-0.13  C79.377,70.956,83.477,69.689,86.582,69.741z M92.224,58.794c-3.641,1.753-6.005,2.975-7.569,3.614  c0.039-0.071,0.077-0.142,0.117-0.213C86.166,61.334,89.475,59.414,92.224,58.794z"></path></g>
</svg>
</g><g opacity="1" transform="rotate(0 162.5743 178.7707)">
<svg width="83.1723" height="43.4297" x="162.5743" y="178.7707" version="1.1" preserveAspectRatio="none" viewBox="-3.2031 -29.1992 67.85150000000002 35.4297">
  <g transform="matrix(1 0 0 1 0 0)" class="av18Pkc8W9color"><path id="id-v18Pkc8W92" d="M20-2.83L18.44-8.24L11.07-8.24Q10.25-5.66 9.31-3.77Q8.36-1.88 7.21-0.63Q6.05 0.63 4.68 1.23Q3.30 1.84 1.60 1.84L1.60 1.84Q0.66 1.84-0.21 1.67Q-1.07 1.50-1.74 1.21Q-2.40 0.92-2.80 0.52Q-3.20 0.12-3.20-0.35L-3.20-0.35Q-3.20-0.70-3.10-1.06Q-2.99-1.43-2.79-1.73Q-2.60-2.03-2.31-2.22Q-2.03-2.40-1.68-2.40L-1.68-2.40Q-1.37-2.40-1.13-1.97Q-0.90-1.54-0.54-1.03Q-0.18-0.51 0.39-0.08Q0.96 0.35 1.95 0.35L1.95 0.35Q2.97 0.35 3.89-0.14Q4.80-0.63 5.65-1.67Q6.50-2.71 7.29-4.34Q8.07-5.96 8.81-8.24L8.81-8.24L4.20-8.24L4.20-9.96L9.32-9.96Q9.96-12.15 10.58-14.38Q11.19-16.60 11.74-18.65Q12.29-20.70 12.71-22.49Q13.14-24.28 13.44-25.61L13.44-25.61Q13.05-26.70 12.37-27.07Q11.70-27.44 10.57-27.44L10.57-27.44Q9.51-27.44 8.39-27.12Q7.27-26.80 6.35-26.20Q5.43-25.61 4.83-24.74Q4.24-23.87 4.24-22.79L4.24-22.79Q4.24-22.17 4.40-21.80Q4.57-21.43 4.79-21.24Q5.02-21.05 5.23-21.01Q5.45-20.96 5.57-20.96L5.57-20.96Q6.04-20.96 6.36-21.12Q6.68-21.29 6.92-21.47Q7.17-21.66 7.40-21.83Q7.64-21.99 7.93-21.99L7.93-21.99Q8.14-21.99 8.41-21.88Q8.67-21.78 8.90-21.54Q9.12-21.31 9.28-20.93Q9.43-20.55 9.43-20L9.43-20Q9.43-19.22 9.13-18.65Q8.83-18.09 8.35-17.71Q7.87-17.32 7.26-17.14Q6.64-16.95 6.04-16.95L6.04-16.95Q5.10-16.95 4.35-17.29Q3.59-17.64 3.07-18.22Q2.54-18.81 2.27-19.59Q1.99-20.37 1.99-21.23L1.99-21.23Q1.99-22.52 2.42-23.60Q2.85-24.69 3.61-25.58Q4.38-26.46 5.41-27.14Q6.45-27.81 7.65-28.27Q8.85-28.73 10.16-28.96Q11.46-29.20 12.79-29.20L12.79-29.20Q14.67-29.20 15.97-28.90Q17.27-28.59 18.14-28.00Q19.02-27.40 19.56-26.49Q20.10-25.59 20.45-24.39L20.45-24.39L24.65-9.96L28.89-9.96L28.89-8.24L25.12-8.24L26.64-3.13Q26.72-2.83 26.80-2.58Q26.88-2.32 26.98-2.14Q27.09-1.95 27.26-1.84Q27.42-1.72 27.68-1.72L27.68-1.72Q28.22-1.72 28.69-1.90Q29.16-2.09 29.51-2.29L29.51-2.29L29.84-1.56Q29.49-1.31 28.96-0.99Q28.42-0.66 27.72-0.37Q27.03-0.08 26.19 0.12Q25.35 0.31 24.39 0.31L24.39 0.31Q23.07 0.31 22.26-0.02Q21.45-0.35 20.99-0.84Q20.53-1.33 20.32-1.88Q20.12-2.42 20-2.83L20-2.83ZM17.97-9.96L14.65-21.45Q13.85-18.18 13.10-15.31Q12.34-12.44 11.60-9.96L11.60-9.96L17.97-9.96Z M43.48-29.20L43.48-29.20Q48.79-29.20 51.59-27.31Q54.39-25.43 54.39-21.91L54.39-21.91Q54.39-20.20 53.99-18.97Q53.59-17.75 52.88-16.90Q52.17-16.05 51.18-15.50Q50.20-14.94 49.04-14.55L49.04-14.55Q49.84-14.34 50.65-13.40Q51.46-12.46 52.30-11.08Q53.14-9.71 54.00-8.03Q54.86-6.35 55.73-4.63Q56.60-2.91 57.49-1.29Q58.38 0.33 59.27 1.60Q60.16 2.87 61.06 3.63Q61.97 4.39 62.87 4.39L62.87 4.39Q63.26 4.39 63.64 4.24Q64.02 4.08 64.24 3.93L64.24 3.93L64.65 4.69Q64.26 4.90 63.69 5.17Q63.13 5.43 62.36 5.66Q61.60 5.90 60.65 6.06Q59.71 6.23 58.55 6.23L58.55 6.23Q56.66 6.23 55.14 5.19Q53.61 4.14 52.52 2.25L52.52 2.25Q51.41 0.29 50.33-1.86Q49.26-4.00 48.19-6.15Q47.13-8.30 46.06-10.35Q45-12.40 43.93-14.20L43.93-14.20L44.08-15Q45.23-14.71 46.08-15.14Q46.93-15.57 47.48-16.53Q48.03-17.50 48.29-18.91Q48.55-20.31 48.55-21.95L48.55-21.95Q48.55-23.13 48.30-24.15Q48.05-25.18 47.59-25.95Q47.13-26.72 46.48-27.16Q45.84-27.60 45.04-27.60L45.04-27.60Q44.41-27.60 44.01-27.41Q43.61-27.23 43.38-26.94Q43.14-26.66 43.06-26.34Q42.97-26.02 42.97-25.72L42.97-25.72L42.97-2.56Q42.97-1.05 42.18-0.37Q41.39 0.31 39.77 0.31L39.77 0.31Q38.13 0.31 37.34-0.37Q36.56-1.05 36.56-2.56L36.56-2.56L36.56-25.92Q36.56-26.99 35.08-26.99L35.08-26.99Q34.00-26.99 32.90-26.67Q31.80-26.35 30.91-25.79Q30.02-25.23 29.45-24.46Q28.89-23.69 28.89-22.79L28.89-22.79Q28.89-22.17 29.05-21.80Q29.22-21.43 29.43-21.24Q29.65-21.05 29.87-21.01Q30.10-20.96 30.20-20.96L30.20-20.96Q30.68-20.96 31.00-21.12Q31.31-21.29 31.56-21.47Q31.82-21.66 32.04-21.83Q32.27-21.99 32.56-21.99L32.56-21.99Q32.79-21.99 33.06-21.88Q33.32-21.78 33.54-21.54Q33.77-21.31 33.93-20.93Q34.08-20.55 34.08-20L34.08-20Q34.08-19.22 33.78-18.65Q33.48-18.09 33.00-17.71Q32.52-17.32 31.90-17.14Q31.29-16.95 30.68-16.95L30.68-16.95Q29.75-16.95 28.99-17.28Q28.24-17.60 27.71-18.16Q27.19-18.73 26.91-19.49Q26.64-20.25 26.64-21.11L26.64-21.11Q26.64-22.73 27.25-23.97Q27.85-25.21 28.96-26.11Q30.06-27.01 31.60-27.61Q33.14-28.20 35.02-28.55Q36.89-28.91 39.03-29.05Q41.17-29.20 43.48-29.20Z"/></g>
</svg>
</g></g></svg>